<?xml version="1.0" encoding="utf-8" standalone="no"?>
<!DOCTYPE svg PUBLIC "-//W3C//DTD SVG 1.1//EN" "http://www.w3.org/Graphics/SVG/1.1/DTD/svg11.dtd">
<svg xmlns="http://www.w3.org/2000/svg" xmlns:xl="http://www.w3.org/1999/xlink" version="1.1" viewBox="0 28 148 14" width="148pt" height="14pt" xmlns:dc="http://purl.org/dc/elements/1.1/"><metadata> Produced by OmniGraffle 6.0.1 <dc:date>2013-10-24 02:35Z</dc:date></metadata><defs/><g stroke="none" stroke-opacity="1" stroke-dasharray="none" fill="none" fill-opacity="1"><title>Canvas 1</title><g><title>Layer 1</title><path d="M 5.5001267 30.663368 L 2.8961267 30.663368 L 2.8961267 34.775368 L 5.5001267 34.775368 C 7.0441267 34.775368 7.7451267 33.949368 7.7451267 32.728368 C 7.7451267 31.507368 7.0441267 30.663368 5.5001267 30.663368 M 5.5901267 36.804368 L 2.8961267 36.804368 L 2.8961267 41.364368 L .5981267 41.364368 L .5981267 28.634368 L 5.5901267 28.634368 C 8.5171267 28.634368 10.0791267 30.268368 10.0791267 32.710368 C 10.0791267 35.152368 8.5171267 36.804368 5.5901267 36.804368" fill="#141313"/><path d="M 19.049627 31.345368 C 18.546627 30.806368 17.774627 30.502368 17.038627 30.502368 C 16.302627 30.502368 15.530627 30.806368 15.027627 31.345368 C 14.147627 32.261368 14.111627 33.841368 14.111627 35.008368 C 14.111627 36.175368 14.147627 37.737368 15.027627 38.652368 C 15.530627 39.192368 16.302627 39.497368 17.038627 39.497368 C 17.774627 39.497368 18.546627 39.192368 19.049627 38.652368 C 19.929627 37.737368 19.965627 36.175368 19.965627 35.008368 C 19.965627 33.841368 19.929627 32.261368 19.049627 31.345368 M 20.701627 40.161368 C 19.731627 41.130368 18.403627 41.598368 17.038627 41.598368 C 15.674627 41.598368 14.345627 41.130368 13.375627 40.161368 C 11.992627 38.778368 11.760627 37.090368 11.760627 35.008368 C 11.760627 32.925368 11.992627 31.220368 13.375627 29.837368 C 14.345627 28.868368 15.674627 28.401368 17.038627 28.401368 C 18.403627 28.401368 19.731627 28.868368 20.701627 29.837368 C 22.083627 31.220368 22.317627 32.925368 22.317627 35.008368 C 22.317627 37.090368 22.083627 38.778368 20.701627 40.161368" fill="#141313"/><path d="M 32.572427 41.364568 L 27.060427 32.620568 L 27.060427 41.364568 L 24.779427 41.364568 L 24.779427 28.634568 L 27.239427 28.634568 L 32.680427 37.252568 L 32.680427 28.634568 L 34.960427 28.634568 L 34.960427 41.364568 Z" fill="#141313"/><path d="M 46.256227 40.089168 C 45.304227 41.060168 43.976227 41.598168 42.611227 41.598168 C 41.247227 41.598168 39.972227 41.148168 39.002227 40.179168 C 37.620227 38.796168 37.422227 37.091168 37.422227 35.008168 C 37.422227 32.926168 37.620227 31.220168 39.002227 29.837168 C 39.972227 28.868168 41.247227 28.401168 42.611227 28.401168 C 43.976227 28.401168 45.304227 28.904168 46.256227 29.873168 C 46.992227 30.627168 47.369227 31.633168 47.477227 32.638168 L 45.107227 32.638168 C 45.053227 32.081168 44.856227 31.687168 44.532227 31.292168 C 44.119227 30.771168 43.401227 30.502168 42.611227 30.502168 C 41.875227 30.502168 41.157227 30.807168 40.654227 31.345168 C 39.775227 32.261168 39.775227 33.841168 39.775227 35.008168 C 39.775227 36.175168 39.775227 37.755168 40.654227 38.671168 C 41.157227 39.210168 41.875227 39.515168 42.611227 39.515168 C 43.401227 39.515168 44.119227 39.228168 44.532227 38.707168 C 44.856227 38.312168 45.053227 37.863168 45.107227 37.306168 L 47.477227 37.306168 C 47.369227 38.312168 46.992227 39.335168 46.256227 40.089168 Z" fill="#141313"/><path d="M 57.480927 41.364568 L 57.480927 35.816568 L 52.255927 35.816568 L 52.255927 41.364568 L 49.939927 41.364568 L 49.939927 28.634568 L 52.255927 28.634568 L 52.255927 33.607568 L 57.480927 33.607568 L 57.480927 28.634568 L 59.797927 28.634568 L 59.797927 41.364568 Z" fill="#141313"/><path d="M 69.549327 31.345368 C 69.046327 30.806368 68.274327 30.502368 67.538327 30.502368 C 66.802327 30.502368 66.030327 30.806368 65.527327 31.345368 C 64.647327 32.261368 64.611327 33.841368 64.611327 35.008368 C 64.611327 36.175368 64.647327 37.737368 65.527327 38.652368 C 66.030327 39.192368 66.802327 39.497368 67.538327 39.497368 C 68.274327 39.497368 69.046327 39.192368 69.549327 38.652368 C 70.428327 37.737368 70.465327 36.175368 70.465327 35.008368 C 70.465327 33.841368 70.428327 32.261368 69.549327 31.345368 M 71.201327 40.161368 C 70.231327 41.130368 68.903327 41.598368 67.538327 41.598368 C 66.173327 41.598368 64.845327 41.130368 63.875327 40.161368 C 62.492327 38.778368 62.259327 37.090368 62.259327 35.008368 C 62.259327 32.925368 62.492327 31.220368 63.875327 29.837368 C 64.845327 28.868368 66.173327 28.401368 67.538327 28.401368 C 68.903327 28.401368 70.231327 28.868368 71.201327 29.837368 C 72.583327 31.220368 72.817327 32.925368 72.817327 35.008368 C 72.817327 37.090368 72.583327 38.778368 71.201327 40.161368" fill="#141313"/><path d="M 93.629927 40.089168 C 92.677927 41.060168 91.349927 41.598168 89.984927 41.598168 C 88.619927 41.598168 87.345927 41.148168 86.375927 40.179168 C 84.992927 38.796168 84.795927 37.091168 84.795927 35.008168 C 84.795927 32.926168 84.992927 31.220168 86.375927 29.837168 C 87.345927 28.868168 88.619927 28.401168 89.984927 28.401168 C 91.349927 28.401168 92.677927 28.904168 93.629927 29.873168 C 94.365927 30.627168 94.742927 31.633168 94.850927 32.638168 L 92.480927 32.638168 C 92.426927 32.081168 92.229927 31.687168 91.905927 31.292168 C 91.493927 30.771168 90.774927 30.502168 89.984927 30.502168 C 89.248927 30.502168 88.530927 30.807168 88.027927 31.345168 C 87.148927 32.261168 87.148927 33.841168 87.148927 35.008168 C 87.148927 36.175168 87.148927 37.755168 88.027927 38.671168 C 88.530927 39.210168 89.248927 39.515168 89.984927 39.515168 C 90.774927 39.515168 91.493927 39.228168 91.905927 38.707168 C 92.229927 38.312168 92.426927 37.863168 92.480927 37.306168 L 94.850927 37.306168 C 94.742927 38.312168 94.365927 39.335168 93.629927 40.089168 Z" fill="#141313"/><path d="M 104.825527 41.364568 L 104.825527 35.816568 L 99.600527 35.816568 L 99.600527 41.364568 L 97.284527 41.364568 L 97.284527 28.634568 L 99.600527 28.634568 L 99.600527 33.607568 L 104.825527 33.607568 L 104.825527 28.634568 L 107.141527 28.634568 L 107.141527 41.364568 Z" fill="#141313"/><path d="M 114.99183 31.470968 L 113.17883 36.839968 L 116.80583 36.839968 Z M 118.34983 41.364968 L 117.52383 38.922968 L 112.46083 38.922968 L 111.63483 41.364968 L 109.299827 41.364968 L 113.77083 28.634968 L 116.30283 28.634968 L 120.77383 41.364968 Z" fill="#141313"/><path d="M 127.91333 30.663368 L 125.30933 30.663368 L 125.30933 34.775368 L 127.91333 34.775368 C 129.45733 34.775368 130.15733 33.949368 130.15733 32.728368 C 130.15733 31.507368 129.45733 30.663368 127.91333 30.663368 M 128.00333 36.804368 L 125.30933 36.804368 L 125.30933 41.364368 L 123.01133 41.364368 L 123.01133 28.634368 L 128.00333 28.634368 C 130.93033 28.634368 132.49233 30.268368 132.49233 32.710368 C 132.49233 35.152368 130.93033 36.804368 128.00333 36.804368" fill="#141313"/><path d="M 82.416327 41.889868 C 82.319327 41.889868 82.223327 41.853868 82.147327 41.781868 L 75.646327 35.555868 C 75.571327 35.484868 75.528327 35.386868 75.526327 35.283868 C 75.524327 35.180868 75.563327 35.080868 75.634327 35.006868 L 82.136327 28.229868 C 82.284327 28.074868 82.530327 28.069868 82.685327 28.217868 C 82.840327 28.366868 82.845327 28.612868 82.696327 28.766868 L 76.464327 35.263868 L 82.685327 41.220868 C 82.840327 41.369868 82.845327 41.615868 82.696327 41.769868 C 82.620327 41.849868 82.518327 41.889868 82.416327 41.889868 Z" fill="#141313"/><path d="M 141.10993 41.889568 C 141.01293 41.889568 140.91593 41.853568 140.84093 41.781568 C 140.68593 41.633568 140.68093 41.387568 140.82993 41.232568 L 147.06193 34.735568 L 140.84093 28.778568 C 140.68593 28.630568 140.68093 28.384568 140.82993 28.229568 C 140.97793 28.074568 141.22393 28.068568 141.37893 28.217568 L 147.87993 34.443568 C 147.95493 34.514568 147.99793 34.612568 147.99993 34.715568 C 148.00193 34.818568 147.96293 34.918568 147.89193 34.992568 L 141.38993 41.770568 C 141.31393 41.849568 141.21193 41.889568 141.10993 41.889568 Z" fill="#141313"/><path d="M 133.05483 41.986968 C 133.00283 41.986968 132.94983 41.975968 132.89883 41.953968 C 132.70183 41.866968 132.61283 41.637968 132.69983 41.441968 L 138.52283 28.244968 C 138.60983 28.047968 138.83883 27.959968 139.03483 28.045968 C 139.23083 28.131968 139.31983 28.361968 139.23383 28.557968 L 133.41083 41.754968 C 133.34683 41.899968 133.20383 41.986968 133.05483 41.986968 Z" fill="#141313"/></g></g></svg>
